<?xml version="1.0" encoding="utf-8"?>
<!-- Generator: Adobe Illustrator 25.0.0, SVG Export Plug-In . SVG Version: 6.00 Build 0)  -->
<svg version="1.1" id="Layer_1" xmlns="http://www.w3.org/2000/svg" xmlns:xlink="http://www.w3.org/1999/xlink" x="0px" y="0px"
	 viewBox="0 0 841.9 595.3" style="enable-background:new 0 0 841.9 595.3;" xml:space="preserve">
<style type="text/css">
	.st0{fill:#3B3A30;}
	.st1{fill:#A09D3E;stroke:#000000;stroke-width:3;stroke-miterlimit:10;}
	.st2{fill:#BE1622;stroke:#E30613;stroke-width:0.5;stroke-miterlimit:10;}
	.st3{fill:#3B3A30;stroke:#575756;stroke-miterlimit:10;}
	.st4{fill:#B2C2BF;}
	.st5{fill:#C0DED9;stroke:#000000;stroke-width:0.5;stroke-miterlimit:10;}
</style>
<g>
	<circle class="st0" cx="540.7" cy="289.9" r="11"/>
	<path class="st1" d="M319.3,114.5"/>
	<path class="st2" d="M414,84.1"/>
	<path class="st2" d="M547.3,201.6"/>
	<g>
		<path class="st3" d="M330.5,190.3c6.6-0.9,11.6-3.1,15.1-6.6s6.5-9.1,9.1-16.8c2.6-7.7,5.6-19.7,8.9-36.1l1.3-6.4
			c0.2-1.1,1.2-1.8,2.9-2.3c1.7-0.4,4.5-0.6,8.3-0.6c3.7,0,6.4,0.2,7.9,0.6c1.5,0.4,2.2,1.2,2,2.3l-1.4,6.7
			c-4.2,21.2-8.7,37-13.3,47.4c-4.7,10.3-10.7,17.8-18.2,22.3s-18.7,6.8-33.6,6.8H291c-0.7,0-1.2-0.2-1.5-0.7
			c-0.3-0.5-0.5-1.2-0.5-2.3c0-0.9,0.2-2.3,0.5-4.3c0.3-1.9,0.7-3.6,1.2-5.1c0.5-1.5,1-2.6,1.6-3.3c0.6-0.7,1.2-1.1,2-1.1h15.3
			v-66.5c0-1,0.8-1.7,2.5-2.1s4.4-0.6,8-0.6c3.7,0,6.4,0.2,8,0.6c1.6,0.4,2.5,1.1,2.5,2.1L330.5,190.3L330.5,190.3z"/>
		<path class="st3" d="M408.5,204.9c-0.3,1.2-1.2,2.1-2.9,2.6s-4.4,0.7-8.3,0.7s-6.6-0.2-8-0.7c-1.4-0.5-2-1.3-1.8-2.6l16.1-79.9
			c0.3-1.2,1.2-2,2.9-2.5c1.7-0.5,4.4-0.8,8.3-0.8s6.6,0.3,8,0.8c1.5,0.5,2.1,1.4,1.8,2.5L408.5,204.9z"/>
		<path class="st3" d="M471.5,158.4c1-4.9,1.5-8.5,1.5-11c0-2.5-0.5-4.3-1.5-5.6c-1-1.3-2.6-2.2-4.9-2.8c-2.2-0.6-5.4-0.8-9.5-0.8
			c-1.8,0-3.6,0-5.5,0.1c-1.9,0.1-3.7,0.1-5.5,0.2c-1.8,0.1-3.8,0.2-6,0.4c-2.2,0.2-3.5,0.3-4,0.3c-0.7,0-1.1-0.2-1.4-0.6
			c-0.3-0.4-0.5-1.1-0.5-2c0-1,0.2-2.6,0.5-4.6c0.3-2.1,0.8-3.8,1.3-5.3c0.5-1.5,1-2.5,1.5-3c0.3-0.2,0.6-0.4,0.9-0.6
			c0.3-0.2,0.7-0.3,1.2-0.4c2.7-0.3,5.9-0.6,9.6-0.8c3.7-0.2,7.2-0.3,10.6-0.3c8.3,0,14.9,0.8,19.9,2.3c5,1.5,8.6,3.9,11,7
			c2.4,3.2,3.5,7.6,3.5,13.1c0,4-0.6,8.8-1.7,14.4l-9.4,46.5c-0.2,1.2-1.2,2-2.9,2.5c-1.7,0.5-4.5,0.7-8.3,0.7c-3.8,0-6.5-0.2-8-0.7
			c-1.5-0.5-2.1-1.3-1.9-2.5L471.5,158.4z"/>
		<path class="st3" d="M531.2,170.6c-0.3,1.2-1.2,2.1-2.9,2.6c-1.7,0.5-4.4,0.7-8.3,0.7s-6.6-0.2-8-0.7c-1.5-0.5-2.1-1.3-1.8-2.6
			l9.2-45.7c0.3-1.2,1.2-2,2.9-2.5s4.4-0.8,8.3-0.8s6.6,0.3,8,0.8c1.5,0.5,2.1,1.4,1.8,2.5L531.2,170.6z"/>
		<path class="st3" d="M558.6,129.7c-1.1-2.1-1.6-3.6-1.6-4.5c0-1.4,0.8-2.3,2.3-2.9c1.5-0.5,4.3-0.8,8.4-0.8c4.2,0,7,0.2,8.6,0.6
			s2.7,1.3,3.5,2.7l17,33c4.7-4,7.8-7.3,9.3-9.9c1.5-2.6,2.7-6.1,3.7-10.6l2.5-12.5c0.3-1.2,1.2-2,2.9-2.5c1.7-0.5,4.4-0.8,8.2-0.8
			c3.9,0,6.6,0.3,8,0.8c1.5,0.5,2.1,1.4,1.9,2.5l-2.4,11.9c-1.7,8.6-4.1,15.1-7.1,19.6c-3,4.5-9.1,10.5-18.3,18l12.9,25.1
			c1.1,2,1.7,3.7,1.7,5c0,1.4-0.8,2.4-2.4,2.9c-1.6,0.5-4.4,0.8-8.3,0.8c-3.8,0-6.7-0.2-8.6-0.5s-3.3-1.3-4.1-2.9l-19.8-38.8
			c-3.4,3.8-5.6,7-6.8,9.8c-1.2,2.8-2.4,7.2-3.6,13.4l-3.2,15.8c-0.3,1.2-1.2,2.1-2.9,2.6c-1.7,0.5-4.5,0.7-8.4,0.7
			c-3.8,0-6.5-0.2-8-0.7c-1.5-0.5-2.1-1.3-1.8-2.6l3.1-15.7c2-9.7,4.5-17.2,7.6-22.5c3.1-5.3,8.1-11.4,15.1-18.2L558.6,129.7z"/>
		<path class="st3" d="M229.3,358.7c-0.2,1.2-1.2,2-2.8,2.5c-1.7,0.5-4.5,0.8-8.4,0.8s-6.6-0.3-8-0.8c-1.4-0.5-2-1.4-1.8-2.5
			l14.5-72.5c0.3-1.2,1.2-2.1,2.9-2.6c1.6-0.5,4.4-0.7,8.3-0.7s6.6,0.2,8,0.7s2.1,1.3,1.8,2.6L229.3,358.7z M303,269.1
			c0,4.6-1.1,9.9-3.3,15.7c-2.2,5.9-5.6,12.5-10.1,20l-15.3,25c-0.9,1.5-2.3,2.4-4.1,2.8c-1.8,0.4-4.9,0.6-9.1,0.6
			c-3.6,0-6.1-0.1-7.4-0.4c-1.3-0.3-1.9-0.9-1.9-1.8c0-1,0.6-2.5,1.9-4.5l16.3-26.8c3.7-6.1,6.5-11.4,8.4-15.8
			c1.8-4.4,2.8-8.2,2.8-11.2c0-2.1-0.6-3.8-1.7-5c-1.1-1.3-2.9-2.2-5.2-2.9c-2.4-0.6-5.4-1-9.2-1h-35.8c-0.6,0-1.1-0.2-1.4-0.7
			c-0.3-0.5-0.5-1.3-0.5-2.3c0-1.3,0.2-3.3,0.7-5.8c0.5-2.5,1.1-4.4,1.9-5.8s1.6-2,2.5-2h36.6c7.7,0,14.1,0.8,19.1,2.4
			c5,1.6,8.7,4,11.1,7.2C301.8,259.9,303,264,303,269.1z"/>
		<path class="st3" d="M335.1,295.7c-0.3,1.2-1.2,2.1-2.9,2.6c-1.6,0.5-4.4,0.7-8.3,0.7s-6.6-0.2-8-0.7c-1.5-0.5-2.1-1.3-1.8-2.6
			l9.2-45.7c0.3-1.2,1.2-2,2.9-2.5s4.4-0.8,8.3-0.8s6.6,0.3,8,0.8c1.5,0.5,2.1,1.4,1.8,2.5L335.1,295.7z"/>
		<path class="st3" d="M418.5,265.7c0,4.7-1.2,9.7-3.5,15c-2.4,5.3-6.3,11.7-11.8,19.2l-21.7,29.7c-0.7,1-1.5,1.7-2.6,2.2
			s-2.6,0.9-4.5,1.1s-4.4,0.4-7.4,0.4c-3.3,0-5.6-0.2-7-0.5c-1.4-0.4-2.1-1-2.1-2c0-0.5,0.1-1.1,0.5-1.8c0.3-0.7,0.7-1.5,1.3-2.3
			l22-29.6c5.5-7.4,9.3-13.1,11.5-17.1s3.3-7.3,3.3-9.9c0-1.5-0.4-2.7-1.3-3.6c-0.8-0.9-2.2-1.6-4-2.1s-4.2-0.7-7.2-0.7h-24.1
			c-1.9,0-3.2-0.5-4.1-1.6c-0.8-1-1-2.5-0.6-4.4l6.8-33.9c0.2-1.2,1.1-2,2.8-2.5s4.4-0.8,8.3-0.8c3.9,0,6.5,0.3,8,0.8
			c1.5,0.5,2.1,1.4,1.8,2.5l-4.6,23.3h11.1c6.5,0,12,0.7,16.2,2.1s7.5,3.4,9.6,6.1C417.5,258,418.5,261.5,418.5,265.7z"/>
		<path class="st3" d="M436.7,358.7c-0.2,1.2-1.2,2-2.8,2.5c-1.7,0.5-4.5,0.8-8.4,0.8s-6.6-0.3-8-0.8c-1.4-0.5-2-1.4-1.8-2.5
			l14.5-72.5c0.3-1.2,1.2-2.1,2.9-2.6c1.7-0.5,4.4-0.7,8.3-0.7s6.6,0.2,8,0.7c1.5,0.5,2.1,1.3,1.8,2.6L436.7,358.7z M510.4,269.1
			c0,4.6-1.1,9.9-3.3,15.7c-2.2,5.9-5.6,12.5-10.1,20l-15.3,25c-0.9,1.5-2.3,2.4-4.1,2.8s-4.9,0.6-9.1,0.6c-3.6,0-6.1-0.1-7.3-0.4
			c-1.3-0.3-1.9-0.9-1.9-1.8c0-1,0.6-2.5,1.9-4.5l16.3-26.8c3.7-6.1,6.5-11.4,8.4-15.8c1.8-4.4,2.8-8.2,2.8-11.2
			c0-2.1-0.6-3.8-1.7-5c-1.1-1.3-2.9-2.2-5.2-2.9c-2.4-0.6-5.4-1-9.2-1h-35.7c-0.7,0-1.1-0.2-1.4-0.7c-0.3-0.5-0.5-1.3-0.5-2.3
			c0-1.3,0.2-3.3,0.7-5.8s1.1-4.4,1.9-5.8s1.6-2,2.5-2h36.6c7.8,0,14.1,0.8,19.1,2.4c5,1.6,8.7,4,11.1,7.2
			C509.2,259.9,510.4,264,510.4,269.1z"/>
		<path class="st3" d="M587.5,319c0,0.9-0.2,2.4-0.6,4.7c-0.4,2.3-1,4.3-1.8,6.2s-1.8,2.9-2.9,2.9h-73c-0.7,0-1.2-0.2-1.5-0.7
			c-0.3-0.5-0.5-1.2-0.5-2.3c0-0.9,0.2-2.4,0.6-4.7c0.4-2.3,1-4.3,1.7-6.2s1.7-2.9,2.9-2.9H558c-1-0.6-1.7-1.7-2.3-3.2
			c-0.5-1.6-0.8-3.5-0.8-6c0-1.7,0.1-3.4,0.4-5.3s0.6-3.8,1-5.7c0.4-1.9,1-4.5,1.8-7.7s1.3-5.6,1.7-7c0.3-1.5,0.6-3,0.8-4.4
			c0.2-1.5,0.3-2.8,0.3-4.1c0-2.7-0.6-4.7-1.8-6s-3-2.2-5.3-2.7s-5.3-0.7-8.9-0.7c-2.4,0-4.9,0.1-7.5,0.2c-2.5,0.2-5,0.4-7.3,0.6
			c-2.3,0.2-3.6,0.4-3.9,0.4c-0.6,0-1-0.2-1.3-0.6c-0.2-0.4-0.4-1-0.4-1.9c0-0.7,0.2-2,0.5-3.8c0.3-1.9,0.7-3.7,1.2-5.5
			c0.5-1.8,1.1-3,1.7-3.6c0.5-0.5,1.3-0.9,2.2-1c3.1-0.5,6.2-0.9,9.2-1.1c3.1-0.2,6.1-0.4,9.1-0.4c6.9,0,12.8,0.6,17.9,1.9
			c5,1.3,8.9,3.5,11.7,6.6s4.1,7.6,4.1,13.4c0,2-0.1,4.1-0.4,6.2c-0.3,2.2-0.6,4.4-1.1,6.5c-0.5,2.2-1.1,5-1.9,8.4s-1.4,6-1.8,7.7
			c-0.3,1.7-0.7,3.4-0.9,5.1s-0.4,3.3-0.4,4.8c0,3.1,0.7,5.4,2.1,6.7c1.4,1.4,3.6,2,6.6,2h1.3c0.7,0,1.2,0.2,1.5,0.7
			C587.3,317.2,587.5,317.9,587.5,319z"/>
	</g>
	<path class="st4" d="M725.5,436.4c-4-1-15-33-15-33c-2.8-22-12.6-38.7-20.7-49c-1.7-2.2-1.4-5.3-2.9-7.7c-2-3.2-2-3.2-8.4-9.3
		c-19-18-31-7-31-7c-16-15-25-3-25-3c-11,2-17-16-22.7,5c-0.5,1.8-0.9,3.5-1.2,5c-3.6,16.6,1.2,19.9,1.2,19.9l-35.5-51.5
		c0,0,0,0-11.8-14.8c-11.8-14.8-17.4,0-17.4,0c-2.4,10.7,45.4,84.2,45.4,84.2c8,28.9,84,95.1,84,95.1l25.8,36.9l57.2-37.8"/>
</g>
<g>
	<path class="st5" d="M215.6,395.5c0,0.3-0.2,0.5-0.6,0.6c-0.4,0.1-1,0.2-1.9,0.2c-0.9,0-1.5-0.1-1.9-0.2c-0.4-0.1-0.5-0.3-0.5-0.6
		v-10.9c0-1.2-0.1-2-0.2-2.6c-0.1-0.5-0.3-0.9-0.6-1.2c-0.3-0.3-0.7-0.5-1.2-0.6s-1.3-0.2-2.3-0.2c-1.3,0-2.9,0.1-4.8,0.2
		c-0.3,0-0.4-0.1-0.5-0.4c-0.1-0.3-0.2-0.8-0.2-1.5c0-0.7,0-1.2,0.2-1.5c0.1-0.3,0.3-0.4,0.6-0.4c1.7-0.2,3.3-0.3,4.9-0.3
		c1.8,0,3.3,0.1,4.4,0.4c1.1,0.3,2,0.7,2.7,1.3c0.7,0.6,1.1,1.4,1.4,2.4c0.3,1,0.4,2.4,0.4,4.1V395.5z"/>
	<path class="st5" d="M227,389.7c0,1.5-0.2,2.8-0.6,3.7c-0.4,1-1,1.7-1.9,2.1s-2,0.7-3.5,0.7h-1.6c-0.3,0-0.4-0.1-0.5-0.4
		c-0.1-0.3-0.2-0.8-0.2-1.5c0-0.7,0.1-1.2,0.2-1.5c0.1-0.3,0.3-0.5,0.5-0.5h1.3c0.5,0,0.9-0.2,1.2-0.6c0.2-0.4,0.4-1,0.4-1.8v-9.8
		h-2.7c-0.3,0-0.4-0.2-0.5-0.5c-0.1-0.3-0.2-0.8-0.2-1.5c0-0.7,0-1.2,0.2-1.5c0.1-0.3,0.3-0.5,0.5-0.5h10c2.5,0,4.4,0.3,5.8,0.8
		c1.4,0.6,2.4,1.4,3,2.7c0.6,1.2,0.9,3,0.9,5.3v10.5c0,0.3-0.2,0.5-0.5,0.6c-0.4,0.1-1,0.2-1.9,0.2s-1.5-0.1-1.9-0.2
		c-0.4-0.1-0.5-0.3-0.5-0.6v-10.2c0-1.5-0.1-2.6-0.4-3.3c-0.3-0.7-0.8-1.2-1.5-1.5c-0.7-0.3-1.8-0.5-3.2-0.5H227V389.7z"/>
	<path class="st5" d="M248.8,395.5c0,0.3-0.2,0.5-0.6,0.6c-0.4,0.1-1,0.2-1.9,0.2c-0.9,0-1.5-0.1-1.9-0.2c-0.4-0.1-0.6-0.3-0.6-0.6
		v-18.7c0-0.3,0.2-0.5,0.6-0.6c0.4-0.1,1-0.2,1.9-0.2c0.9,0,1.5,0.1,1.9,0.2c0.4,0.1,0.6,0.3,0.6,0.6V395.5z"/>
	<path class="st5" d="M258.4,387.5c0,0.3-0.2,0.5-0.6,0.6c-0.4,0.1-1,0.2-1.9,0.2c-0.9,0-1.5-0.1-1.9-0.2c-0.4-0.1-0.6-0.3-0.6-0.6
		v-10.7c0-0.3,0.2-0.5,0.6-0.6c0.4-0.1,1-0.2,1.9-0.2c0.9,0,1.5,0.1,1.9,0.2c0.4,0.1,0.6,0.3,0.6,0.6V387.5z"/>
	<path class="st5" d="M276.7,395.5c0,0.3-0.2,0.5-0.5,0.6c-0.4,0.1-1,0.2-1.9,0.2s-1.5-0.1-1.9-0.2c-0.4-0.1-0.5-0.3-0.5-0.6v-17.8
		c0-0.4,0.1-0.7,0.3-1c0.2-0.2,0.5-0.4,1-0.4c0.9-0.1,1.9-0.2,3.1-0.2c1.2,0,2.4-0.1,3.6-0.1c2.5,0,4.5,0.3,5.9,0.9
		c1.4,0.6,2.4,1.5,3,2.8c0.6,1.3,0.9,3,0.9,5.2v10.5c0,0.3-0.2,0.5-0.5,0.6c-0.4,0.1-1,0.2-1.9,0.2c-0.9,0-1.5-0.1-1.9-0.2
		c-0.4-0.1-0.6-0.3-0.6-0.6v-10.2c0-1.4-0.1-2.5-0.4-3.3c-0.3-0.7-0.7-1.3-1.4-1.6s-1.8-0.5-3.2-0.5c-1.1,0-2.2,0-3.1,0.1V395.5z"/>
	<path class="st5" d="M307.6,381.7c0,0.9-0.2,1.9-0.5,3c-0.4,1.1-0.9,2.4-1.7,3.8l-3.6,6.9c-0.2,0.4-0.5,0.6-0.9,0.7
		c-0.4,0.1-1.2,0.2-2.2,0.2c-0.8,0-1.4,0-1.7-0.1s-0.5-0.3-0.5-0.6c0-0.2,0.1-0.4,0.3-0.8l3.7-6.9c0.8-1.5,1.3-2.6,1.7-3.5
		c0.3-0.9,0.5-1.6,0.5-2.3c0-0.5-0.1-0.9-0.3-1.2c-0.2-0.3-0.6-0.5-1-0.6c-0.5-0.1-1.1-0.2-1.9-0.2h-5.6c-0.4,0-0.8-0.1-1-0.4
		s-0.4-0.6-0.4-1v-7.9c0-0.3,0.2-0.5,0.5-0.6c0.4-0.1,1-0.2,1.9-0.2c0.9,0,1.5,0.1,1.9,0.2c0.4,0.1,0.5,0.3,0.5,0.6v5.4h2.7
		c1.4,0,2.5,0.1,3.5,0.3c1,0.2,1.7,0.6,2.3,1c0.6,0.4,1,1,1.3,1.7C307.4,379.9,307.6,380.7,307.6,381.7z"/>
	<path class="st5" d="M325.4,392.1c0.2,0.3,0.4,0.6,0.5,0.8c0.1,0.2,0.1,0.5,0.1,0.8v0.9c0,0.6-0.1,0.9-0.2,1.2
		c-0.1,0.2-0.3,0.4-0.6,0.4H310c-0.2,0-0.4-0.2-0.5-0.5c-0.1-0.3-0.2-0.8-0.2-1.4c0-0.7,0.1-1.2,0.2-1.5c0.1-0.3,0.3-0.5,0.5-0.5
		h9.7l-10.3-14.4c-0.3-0.4-0.4-0.7-0.4-0.9c0-0.3,0.2-0.5,0.6-0.6s1-0.2,1.9-0.2c1,0,1.8,0.1,2.2,0.2c0.4,0.1,0.7,0.3,0.9,0.6
		l5.1,7.4l0.3-0.4c0.4-0.4,0.7-0.8,0.9-1.2c0.2-0.4,0.4-0.8,0.4-1.3c0.1-0.5,0.1-1.1,0.1-1.8v-2.7c0-0.3,0.2-0.5,0.6-0.6
		c0.4-0.1,1-0.2,1.9-0.2c0.9,0,1.5,0.1,1.9,0.2s0.6,0.3,0.6,0.6v2.5c0,1.3-0.1,2.4-0.3,3.2c-0.2,0.8-0.5,1.5-0.9,2.3
		s-1.2,1.6-2.1,2.5l-0.6,0.6L325.4,392.1z"/>
	<path class="st5" d="M335.4,395.5c0,0.3-0.2,0.5-0.6,0.6c-0.4,0.1-1,0.2-1.9,0.2c-0.9,0-1.5-0.1-1.9-0.2c-0.4-0.1-0.6-0.3-0.6-0.6
		v-18.7c0-0.3,0.2-0.5,0.6-0.6c0.4-0.1,1-0.2,1.9-0.2c0.9,0,1.5,0.1,1.9,0.2c0.4,0.1,0.6,0.3,0.6,0.6V395.5z"/>
	<path class="st5" d="M345.2,379c1.1-1.1,2.3-1.9,3.4-2.4s2.2-0.8,3.3-0.8c1.6,0,2.8,0.4,3.8,1.1c1,0.7,1.7,1.8,2.2,3.2
		c0.5,1.5,0.7,3.3,0.7,5.7c0,1.4,0,2.9-0.1,4.5c-0.1,1.6-0.2,3.1-0.3,4.5c0,0.5-0.2,0.8-0.4,1c-0.2,0.2-0.6,0.3-1,0.3h-8.3
		c-0.3,0-0.4-0.2-0.5-0.5s-0.2-0.8-0.2-1.5c0-0.7,0-1.2,0.2-1.5c0.1-0.3,0.3-0.5,0.5-0.5h5.1c0.2-2.4,0.2-4.4,0.2-6.2
		c0-1.6-0.1-2.8-0.3-3.7s-0.5-1.5-0.9-1.9c-0.4-0.4-1-0.6-1.7-0.6c-0.7,0-1.4,0.2-2.1,0.7c-0.7,0.4-1.5,1.2-2.5,2.1l-2.2,12.9
		c0,0.3-0.2,0.5-0.6,0.6c-0.4,0.1-1,0.2-1.9,0.2c-0.9,0-1.5-0.1-1.9-0.2c-0.4-0.1-0.5-0.3-0.5-0.6l2.1-12.2c0.1-0.5,0.1-0.9,0-1.3
		c-0.1-0.4-0.2-0.8-0.5-1.4l-1.1-2.6c-0.2-0.5-0.3-0.9-0.4-1.1c0-0.2,0-0.4,0.1-0.5c0.1-0.1,0.3-0.2,0.6-0.2c0.3,0,0.8-0.1,1.5-0.1
		c1.1,0,1.8,0,2.1,0.1s0.6,0.3,0.7,0.6L345.2,379z"/>
	<path class="st5" d="M367.7,395.5c0,0.3-0.2,0.5-0.6,0.6c-0.4,0.1-1,0.2-1.9,0.2c-0.9,0-1.5-0.1-1.9-0.2c-0.4-0.1-0.6-0.3-0.6-0.6
		v-18.7c0-0.3,0.2-0.5,0.6-0.6c0.4-0.1,1-0.2,1.9-0.2c0.9,0,1.5,0.1,1.9,0.2c0.4,0.1,0.6,0.3,0.6,0.6V395.5z"/>
	<path class="st5" d="M399.3,383.6c0,2.6-0.5,4.9-1.4,6.9c-0.9,2-2.3,3.5-4,4.5c-1.8,1-3.8,1.5-6.2,1.5c-1.6,0-2.9-0.1-4.1-0.3
		c-0.5-0.1-0.9-0.3-1.1-0.5c-0.3-0.3-0.4-0.7-0.4-1.2l-1.4-17.2c0-0.5,0.1-0.9,0.5-1s1-0.2,2-0.2c1,0,1.6,0.1,1.9,0.2
		s0.5,0.4,0.5,0.7l1.3,15.5c0.4,0.1,0.8,0.1,1.4,0.1c1.3,0,2.5-0.3,3.4-1c0.9-0.7,1.7-1.6,2.1-2.9c0.5-1.3,0.7-2.9,0.7-4.8v-0.2
		c0-0.9-0.1-1.6-0.3-2.1s-0.5-0.9-0.9-1.2c-0.4-0.2-0.9-0.4-1.5-0.4h-1.5c-0.2,0-0.4-0.2-0.5-0.5c-0.1-0.3-0.2-0.8-0.2-1.5
		c0-0.7,0-1.2,0.2-1.5c0.1-0.3,0.3-0.5,0.5-0.5h1.8c1.8,0,3.2,0.2,4.3,0.7c1.1,0.5,1.9,1.3,2.4,2.3c0.5,1.1,0.8,2.5,0.8,4.2V383.6z"
		/>
	<path class="st5" d="M407.9,395.5c0,0.3-0.2,0.5-0.6,0.6c-0.4,0.1-1,0.2-1.9,0.2c-0.9,0-1.5-0.1-1.9-0.2c-0.4-0.1-0.6-0.3-0.6-0.6
		v-18.7c0-0.3,0.2-0.5,0.6-0.6c0.4-0.1,1-0.2,1.9-0.2c0.9,0,1.5,0.1,1.9,0.2c0.4,0.1,0.6,0.3,0.6,0.6V395.5z"/>
	<path class="st5" d="M418.4,392.4c1.2,0.2,2.4,0.3,3.6,0.3c2.3,0,4.2-0.5,5.6-1.4c1.4-1,2.5-2.4,3.2-4.4c0.7-2,1-4.6,1-7.7v-2.3
		c0-0.3,0.2-0.5,0.6-0.6s1-0.2,1.9-0.2c0.9,0,1.5,0.1,1.8,0.2c0.4,0.1,0.5,0.3,0.5,0.6v2.2c0,3.9-0.6,7.2-1.7,9.8
		c-1.1,2.6-2.8,4.5-5,5.8c-2.2,1.3-5,1.9-8.3,1.9c-1,0-2-0.1-3.2-0.2c-1.2-0.1-2.1-0.2-2.7-0.4c-0.7-0.1-1.1-0.3-1.4-0.6
		c-0.3-0.3-0.5-0.6-0.5-1.1l-2.5-17.1c0-0.3,0-0.5,0.1-0.7s0.3-0.2,0.6-0.3c0.3-0.1,0.8-0.1,1.4-0.1c1,0,1.7,0.1,2.1,0.2
		c0.4,0.1,0.6,0.3,0.6,0.6l1.1,7.4c1.3,0,2.3-0.1,2.9-0.4c0.6-0.3,1.1-0.8,1.4-1.6c0.3-0.8,0.4-2,0.4-3.7v-1.7
		c0-0.3,0.2-0.5,0.5-0.6c0.3-0.1,0.9-0.2,1.8-0.2c0.8,0,1.4,0.1,1.8,0.2c0.3,0.1,0.5,0.3,0.5,0.6v1.6c0,2.5-0.3,4.4-0.8,5.8
		c-0.6,1.4-1.5,2.3-2.7,2.9s-3,0.8-5.2,0.7L418.4,392.4z"/>
	<path class="st5" d="M440.5,396.2c-0.2,0-0.4-0.2-0.5-0.5c-0.1-0.3-0.2-0.8-0.2-1.4c0-0.7,0.1-1.2,0.2-1.5c0.1-0.3,0.3-0.5,0.5-0.5
		H452c0.2-2.7,0.3-4.9,0.3-6.5c0-1.7-0.1-3-0.4-3.7c-0.2-0.7-0.7-1.3-1.3-1.5s-1.7-0.4-3.1-0.4h-3.1l-0.2,1.6
		c-0.1,0.7-0.1,1.2,0,1.5c0.1,0.3,0.2,0.6,0.5,0.9c0.3,0.2,0.7,0.5,1.3,0.8l0.6,0.3c0.2,0.1,0.3,0.2,0.3,0.4s0,0.4-0.2,0.7
		c-0.1,0.3-0.3,0.6-0.5,1c-0.3,0.6-0.6,1-0.8,1.2c-0.2,0.2-0.3,0.3-0.5,0.4c-0.2,0-0.4,0-0.6-0.1l-1-0.5c-1.1-0.6-2-1.1-2.5-1.7
		c-0.5-0.6-0.9-1.2-1.1-2c-0.2-0.8-0.2-1.8-0.1-3l0.4-4c0-0.5,0.2-0.8,0.4-1c0.2-0.2,0.6-0.3,1-0.3h6.2c1.9,0,3.4,0.2,4.6,0.5
		c1.2,0.3,2.1,0.8,2.8,1.5c0.7,0.7,1.2,1.6,1.5,2.7c0.3,1.2,0.5,2.7,0.5,4.6c0,1.1-0.1,2.6-0.2,4.4c-0.1,1.8-0.3,3.4-0.4,4.8
		c0,0.5-0.2,0.8-0.4,1.1c-0.2,0.2-0.6,0.3-1,0.3H440.5z"/>
	<path class="st5" d="M483.6,381.7c0,0.9-0.2,1.9-0.5,3c-0.4,1.1-0.9,2.4-1.7,3.8l-3.6,6.9c-0.2,0.4-0.5,0.6-0.9,0.7
		c-0.4,0.1-1.2,0.2-2.2,0.2c-0.8,0-1.4,0-1.7-0.1s-0.5-0.3-0.5-0.6c0-0.2,0.1-0.4,0.3-0.8l3.7-6.9c0.8-1.5,1.3-2.6,1.7-3.5
		c0.3-0.9,0.5-1.6,0.5-2.3c0-0.5-0.1-0.9-0.3-1.2c-0.2-0.3-0.6-0.5-1-0.6c-0.5-0.1-1.1-0.2-1.9-0.2h-5.6c-0.4,0-0.8-0.1-1-0.4
		s-0.4-0.6-0.4-1v-7.9c0-0.3,0.2-0.5,0.5-0.6c0.4-0.1,1-0.2,1.9-0.2c0.9,0,1.5,0.1,1.9,0.2c0.4,0.1,0.5,0.3,0.5,0.6v5.4h2.7
		c1.4,0,2.5,0.1,3.5,0.3c1,0.2,1.7,0.6,2.3,1c0.6,0.4,1,1,1.3,1.7C483.5,379.9,483.6,380.7,483.6,381.7z"/>
	<path class="st5" d="M501.1,385.5c0,2.5-0.2,5.6-0.6,9.2c-0.1,0.5-0.2,0.8-0.5,1.1c-0.2,0.2-0.6,0.3-1,0.3h-12.8
		c-0.2,0-0.4-0.2-0.5-0.5s-0.2-0.8-0.2-1.4c0-0.7,0.1-1.2,0.2-1.5c0.1-0.3,0.3-0.5,0.5-0.5h9.6c0.2-2.8,0.3-4.9,0.3-6.5
		c0-1.8-0.1-3-0.4-3.8s-0.7-1.3-1.4-1.6s-1.7-0.5-3.2-0.5c-1.1,0-2.6,0.1-4.3,0.3c-0.3,0-0.4-0.1-0.5-0.4c-0.1-0.3-0.1-0.8-0.1-1.5
		c0-0.7,0-1.2,0.2-1.5c0.1-0.3,0.3-0.4,0.6-0.5c1.6-0.2,3.1-0.3,4.5-0.3c2.5,0,4.5,0.3,5.8,0.8c1.3,0.6,2.3,1.5,2.9,2.8
		S501.1,382.9,501.1,385.5z"/>
	<path class="st5" d="M523,395.5c0,0.3-0.2,0.5-0.6,0.6c-0.4,0.1-1,0.2-1.9,0.2c-0.9,0-1.5-0.1-1.9-0.2c-0.4-0.1-0.6-0.3-0.6-0.6
		v-10.2c0-1.2-0.1-2.1-0.3-2.7c-0.2-0.6-0.5-1.1-0.9-1.5c-0.4-0.4-1-0.6-1.7-0.8c-0.7-0.2-1.6-0.2-2.7-0.2H506
		c-0.3,0-0.4-0.2-0.5-0.5c-0.1-0.3-0.2-0.8-0.2-1.5c0-0.7,0.1-1.2,0.2-1.5c0.1-0.3,0.3-0.5,0.5-0.5h6.9c2,0,3.6,0.2,4.9,0.5
		c1.3,0.3,2.3,0.8,3,1.4s1.3,1.5,1.7,2.6c0.4,1.1,0.5,2.5,0.5,4.3V395.5z M510.4,395.5c0,0.3-0.2,0.5-0.6,0.6
		c-0.4,0.1-1,0.2-1.9,0.2c-0.9,0-1.5-0.1-1.9-0.2c-0.4-0.1-0.6-0.3-0.6-0.6v-10.2c0-0.3,0.2-0.5,0.6-0.6c0.4-0.1,1-0.2,1.9-0.2
		c0.9,0,1.5,0.1,1.9,0.2c0.4,0.1,0.6,0.3,0.6,0.6V395.5z"/>
</g>
</svg>
